<svg height="511pt" viewBox="1 -79 511.999 511" width="511pt" xmlns="http://www.w3.org/2000/svg"><path d="m45.027344 286.746094h421.945312c8.285156 0 15.027344-6.738282 15.027344-15.027344v-184.496094c0-8.289062-6.742188-15.027344-15.027344-15.027344h-421.945312c-8.285156 0-15.027344 6.738282-15.027344 15.027344v184.496094c0 8.289062 6.742188 15.027344 15.027344 15.027344zm0-199.550782 421.972656.027344-.027344 184.523438-421.972656-.011719s0-.003906 0-.015625zm0 0"/><path d="m72.652344 178.292969c4.144531 0 7.5-3.355469 7.5-7.5v-45.496094c0-4.144531-3.355469-7.5-7.5-7.5-4.140625 0-7.5 3.355469-7.5 7.5v45.496094c0 4.144531 3.359375 7.5 7.5 7.5zm0 0"/><path d="m72.652344 241.148438c4.144531 0 7.5-3.359376 7.5-7.5v-45.5c0-4.144532-3.355469-7.5-7.5-7.5-4.140625 0-7.5 3.355468-7.5 7.5v45.5c0 4.140624 3.359375 7.5 7.5 7.5zm0 0"/><path d="m127.476562 178.292969c4.140626 0 7.5-3.355469 7.5-7.5v-45.496094c0-4.144531-3.359374-7.5-7.5-7.5-4.140624 0-7.5 3.355469-7.5 7.5v45.496094c0 4.144531 3.359376 7.5 7.5 7.5zm0 0"/><path d="m127.476562 241.148438c4.140626 0 7.5-3.359376 7.5-7.5v-45.5c0-4.144532-3.359374-7.5-7.5-7.5-4.140624 0-7.5 3.355468-7.5 7.5v45.5c0 4.140624 3.359376 7.5 7.5 7.5zm0 0"/><path d="m89.582031 119.957031h20.96875c4.140625 0 7.5-3.359375 7.5-7.5 0-4.144531-3.359375-7.5-7.5-7.5h-20.96875c-4.140625 0-7.5 3.355469-7.5 7.5 0 4.140625 3.359375 7.5 7.5 7.5zm0 0"/><path d="m89.582031 253.988281h20.96875c4.140625 0 7.5-3.359375 7.5-7.5 0-4.144531-3.359375-7.5-7.5-7.5h-20.96875c-4.140625 0-7.5 3.355469-7.5 7.5 0 4.140625 3.359375 7.5 7.5 7.5zm0 0"/><path d="m158.4375 178.292969c4.140625 0 7.5-3.355469 7.5-7.5v-45.496094c0-4.144531-3.359375-7.5-7.5-7.5s-7.5 3.355469-7.5 7.5v45.496094c0 4.144531 3.359375 7.5 7.5 7.5zm0 0"/><path d="m158.4375 241.148438c4.140625 0 7.5-3.359376 7.5-7.5v-45.5c0-4.144532-3.359375-7.5-7.5-7.5s-7.5 3.355468-7.5 7.5v45.5c0 4.140624 3.359375 7.5 7.5 7.5zm0 0"/><path d="m213.261719 178.292969c4.140625 0 7.5-3.355469 7.5-7.5v-45.496094c0-4.144531-3.359375-7.5-7.5-7.5s-7.5 3.355469-7.5 7.5v45.496094c0 4.144531 3.359375 7.5 7.5 7.5zm0 0"/><path d="m213.261719 241.148438c4.140625 0 7.5-3.359376 7.5-7.5v-45.5c0-4.144532-3.359375-7.5-7.5-7.5s-7.5 3.355468-7.5 7.5v45.5c0 4.140624 3.359375 7.5 7.5 7.5zm0 0"/><path d="m175.367188 119.957031h20.964843c4.144531 0 7.5-3.359375 7.5-7.5 0-4.144531-3.355469-7.5-7.5-7.5h-20.964843c-4.140626 0-7.5 3.355469-7.5 7.5 0 4.140625 3.359374 7.5 7.5 7.5zm0 0"/><path d="m175.367188 253.988281h20.964843c4.144531 0 7.5-3.359375 7.5-7.5 0-4.144531-3.355469-7.5-7.5-7.5h-20.964843c-4.140626 0-7.5 3.355469-7.5 7.5 0 4.140625 3.359374 7.5 7.5 7.5zm0 0"/><path d="m298.738281 178.292969c4.140625 0 7.5-3.355469 7.5-7.5v-45.496094c0-4.144531-3.359375-7.5-7.5-7.5s-7.5 3.355469-7.5 7.5v45.496094c0 4.144531 3.359375 7.5 7.5 7.5zm0 0"/><path d="m298.738281 241.148438c4.140625 0 7.5-3.359376 7.5-7.5v-45.5c0-4.144532-3.359375-7.5-7.5-7.5s-7.5 3.355468-7.5 7.5v45.5c0 4.140624 3.359375 7.5 7.5 7.5zm0 0"/><path d="m353.5625 178.292969c4.140625 0 7.5-3.355469 7.5-7.5v-45.496094c0-4.144531-3.359375-7.5-7.5-7.5s-7.5 3.355469-7.5 7.5v45.496094c0 4.144531 3.355469 7.5 7.5 7.5zm0 0"/><path d="m353.5625 241.148438c4.140625 0 7.5-3.359376 7.5-7.5v-45.5c0-4.144532-3.359375-7.5-7.5-7.5s-7.5 3.355468-7.5 7.5v45.5c0 4.140624 3.355469 7.5 7.5 7.5zm0 0"/><path d="m315.667969 119.957031h20.964843c4.140626 0 7.5-3.359375 7.5-7.5 0-4.144531-3.359374-7.5-7.5-7.5h-20.964843c-4.144531 0-7.5 3.355469-7.5 7.5 0 4.140625 3.355469 7.5 7.5 7.5zm0 0"/><path d="m315.667969 253.988281h20.964843c4.140626 0 7.5-3.359375 7.5-7.5 0-4.144531-3.359374-7.5-7.5-7.5h-20.964843c-4.144531 0-7.5 3.355469-7.5 7.5 0 4.140625 3.355469 7.5 7.5 7.5zm0 0"/><path d="m384.523438 178.292969c4.140624 0 7.5-3.355469 7.5-7.5v-45.496094c0-4.144531-3.359376-7.5-7.5-7.5-4.140626 0-7.5 3.355469-7.5 7.5v45.496094c0 4.144531 3.359374 7.5 7.5 7.5zm0 0"/><path d="m384.523438 241.148438c4.140624 0 7.5-3.359376 7.5-7.5v-45.5c0-4.144532-3.359376-7.5-7.5-7.5-4.140626 0-7.5 3.355468-7.5 7.5v45.5c0 4.140624 3.359374 7.5 7.5 7.5zm0 0"/><path d="m439.347656 178.292969c4.140625 0 7.5-3.355469 7.5-7.5v-45.496094c0-4.144531-3.359375-7.5-7.5-7.5-4.144531 0-7.5 3.355469-7.5 7.5v45.496094c0 4.144531 3.355469 7.5 7.5 7.5zm0 0"/><path d="m439.347656 241.148438c4.140625 0 7.5-3.359376 7.5-7.5v-45.5c0-4.144532-3.359375-7.5-7.5-7.5-4.144531 0-7.5 3.355468-7.5 7.5v45.5c0 4.140624 3.355469 7.5 7.5 7.5zm0 0"/><path d="m401.453125 119.957031h20.964844c4.140625 0 7.5-3.359375 7.5-7.5 0-4.144531-3.359375-7.5-7.5-7.5h-20.964844c-4.144531 0-7.5 3.355469-7.5 7.5 0 4.140625 3.355469 7.5 7.5 7.5zm0 0"/><path d="m401.453125 253.988281h20.964844c4.140625 0 7.5-3.359375 7.5-7.5 0-4.144531-3.359375-7.5-7.5-7.5h-20.964844c-4.144531 0-7.5 3.355469-7.5 7.5 0 4.140625 3.355469 7.5 7.5 7.5zm0 0"/><path d="m256 175.460938c4.140625 0 7.5-3.355469 7.5-7.5v-13.050782c0-4.144531-3.359375-7.5-7.5-7.5s-7.5 3.355469-7.5 7.5v13.054688c0 4.140625 3.359375 7.496094 7.5 7.496094zm0 0"/><path d="m256 211.53125c4.140625 0 7.5-3.355469 7.5-7.5v-13.050781c0-4.144531-3.359375-7.5-7.5-7.5s-7.5 3.355469-7.5 7.5v13.050781c0 4.144531 3.359375 7.5 7.5 7.5zm0 0"/><path d="m479.824219 42.195312h-132.765625v-21.710937c0-11.019531-8.964844-19.984375-19.984375-19.984375h-46.085938c-4.140625 0-7.5 3.355469-7.5 7.5 0 4.140625 3.359375 7.5 7.5 7.5h46.085938c2.75 0 4.984375 2.234375 4.984375 4.984375v21.710937h-152.117188v-21.710937c0-2.75 2.234375-4.984375 4.984375-4.984375h70.816407c4.140624 0 7.5-3.359375 7.5-7.5 0-4.144531-3.359376-7.5-7.5-7.5h-70.816407c-11.019531 0-19.984375 8.964844-19.984375 19.984375v21.710937h-132.765625c-17.742187 0-32.175781 14.429688-32.175781 32.171876v172.121093c0 4.140625 3.359375 7.5 7.5 7.5s7.5-3.359375 7.5-7.5v-172.121093c0-9.46875 7.703125-17.171876 17.175781-17.171876h447.648438c9.472656 0 17.175781 7.703126 17.175781 17.171876v210.207031c0 9.46875-7.703125 17.175781-17.175781 17.175781h-447.648438c-9.472656 0-17.175781-7.707031-17.175781-17.175781v-12.839844c0-4.144531-3.359375-7.5-7.5-7.5s-7.5 3.355469-7.5 7.5v12.839844c0 17.742187 14.433594 32.175781 32.175781 32.175781h14.582031v20.644531c0 8.441407 6.867188 15.308594 15.3125 15.308594h81.125c8.441407 0 15.308594-6.867187 15.308594-15.308594v-20.644531h194.992188v20.644531c0 8.441407 6.867187 15.308594 15.308594 15.308594h81.125c8.441406 0 15.3125-6.867187 15.3125-15.308594v-20.644531h14.582031c17.742187 0 32.175781-14.433594 32.175781-32.175781v-210.207031c0-17.742188-14.433594-32.171876-32.175781-32.171876zm-336.320313 295.195313c0 .171875-.140625.3125-.308594.3125h-81.125c-.171874 0-.3125-.140625-.3125-.3125v-20.644531h81.746094zm306.738282 0c0 .171875-.140626.3125-.3125.3125h-81.125c-.167969 0-.308594-.140625-.308594-.3125v-20.644531h81.746094zm0 0"/></svg>